<svg xmlns="http://www.w3.org/2000/svg" id="svg0.4958015070888162" viewBox="0 0 138 105"><path d="M0 0 C45.54 0 91.08 0 138 0 C138 34.65 138 69.3 138 105 C92.46 105 46.92 105 0 105 C0 70.35 0 35.7 0 0 Z " transform="translate(0,0)" style="fill: #FDFCFD;"/><path d="M0 0 C0.95003906 -0.00515625 1.90007813 -0.0103125 2.87890625 -0.015625 C5.4375 0.25 5.4375 0.25 8.4375 2.25 C8.1075 3.57 7.7775 4.89 7.4375 6.25 C3.61993176 7.62432457 0.36494671 6.92975039 -3.5625 6.25 C-3.06490907 11.55410759 -0.22899509 15.51179819 2.5 19.9375 C3.43225069 21.45987937 4.36083087 22.98451448 5.28515625 24.51171875 C5.9040271 25.51658325 5.9040271 25.51658325 6.53540039 26.54174805 C7.4375 28.25 7.4375 28.25 7.4375 30.25 C8.0975 30.25 8.7575 30.25 9.4375 30.25 C9.9325 32.23 9.9325 32.23 10.4375 34.25 C12.7475 33.59 15.0575 32.93 17.4375 32.25 C17.42589844 31.46238281 17.41429687 30.67476562 17.40234375 29.86328125 C17.22417599 8.35588724 17.22417599 8.35588724 20.4375 1.25 C23.0775 1.25 25.7175 1.25 28.4375 1.25 C28.2979947 4.64612414 28.14977678 8.04181458 28 11.4375 C27.96068359 12.39720703 27.92136719 13.35691406 27.88085938 14.34570312 C27.83896484 15.27705078 27.79707031 16.20839844 27.75390625 17.16796875 C27.71724854 18.02156982 27.68059082 18.8751709 27.64282227 19.75463867 C27.43218906 22.31454594 26.98908464 24.74333243 26.4375 27.25 C27.0975 26.755 27.7575 26.26 28.4375 25.75 C32.52659662 23.70545169 34.88081263 23.81602977 39.4375 24.25 C42.67363354 25.99253345 43.26145315 26.72185944 44.4375 30.25 C44.75411477 35.66038773 44.55623451 40.93601106 43.4375 46.25 C45.0875 46.25 46.7375 46.25 48.4375 46.25 C48.56705078 44.60451172 48.56705078 44.60451172 48.69921875 42.92578125 C48.83998072 41.47124094 48.98197295 40.01681933 49.125 38.5625 C49.17849609 37.84126953 49.23199219 37.12003906 49.28710938 36.37695312 C49.84079434 31.10490936 51.20663275 28.73463555 55.4375 25.25 C55.9325 24.755 55.9325 24.755 56.4375 24.25 C62.30545253 23.73803099 67.70802237 23.28334134 72.4375 27.25 C73.4275 28.24 73.4275 28.24 74.4375 29.25 C74.11639311 32.78217579 73.55933498 35.88449506 72.4375 39.25 C70.40625 40.56640625 70.40625 40.56640625 67.9375 41.8125 C64.53491461 43.36619318 64.53491461 43.36619318 62.4375 46.25 C68.05302703 45.99532757 71.71766745 45.26390604 76.546875 42.18359375 C80.20303056 40.37817809 84.4000003 39.87803604 88.4375 40.25 C90.73828125 41.55859375 90.73828125 41.55859375 92.4375 43.25 C92.4375 44.24 92.4375 45.23 92.4375 46.25 C91.88578125 46.08628906 91.3340625 45.92257813 90.765625 45.75390625 C88.17135993 45.19239586 85.83914589 45.15260992 83.1875 45.1875 C82.29546875 45.19652344 81.4034375 45.20554688 80.484375 45.21484375 C79.47117188 45.23224609 79.47117188 45.23224609 78.4375 45.25 C77.7775 46.57 77.1175 47.89 76.4375 49.25 C75.7775 49.25 75.1175 49.25 74.4375 49.25 C74.89572468 52.71941546 75.32881683 55.92395049 76.4375 59.25 C74.4575 59.25 72.4775 59.25 70.4375 59.25 C70.4375 58.59 70.4375 57.93 70.4375 57.25 C69.1175 57.25 67.7975 57.25 66.4375 57.25 C66.4375 58.24 66.4375 59.23 66.4375 60.25 C67.71625 60.559375 68.995 60.86875 70.3125 61.1875 C72.53851675 61.72605244 74.38489999 62.2237 76.4375 63.25 C76.6875 65.5625 76.6875 65.5625 76.4375 68.25 C73.99359819 71.20304802 72.34361726 71.25894121 68.5 71.625 C64.7285743 71.50604965 62.61499982 70.28006933 59.4375 68.25 C57.09711188 68.46276256 55.73150105 69.06954418 53.73828125 70.29296875 C50.63603029 71.58337874 48.03336381 71.44191728 44.6875 71.375 C43.51703125 71.35695313 42.3465625 71.33890625 41.140625 71.3203125 C40.24859375 71.29710938 39.3565625 71.27390625 38.4375 71.25 C38.41065321 68.60409986 38.39073643 65.95846904 38.375 63.3125 C38.36662109 62.55775391 38.35824219 61.80300781 38.34960938 61.02539062 C38.34097559 59.10005687 38.38525667 57.17464419 38.4375 55.25 C40.17706658 53.51043342 42.6311622 53.87809614 45 53.6875 C46.01191406 53.60371094 47.02382812 53.51992187 48.06640625 53.43359375 C49.24009766 53.34271484 49.24009766 53.34271484 50.4375 53.25 C50.581875 52.610625 50.72625 51.97125 50.875 51.3125 C51.4375 49.25 51.4375 49.25 52.4375 48.25 C49.47574877 48.86277612 48.05691217 49.50372522 45.4375 51.25 C43.28125 51.3671875 43.28125 51.3671875 40.9375 51.125 C40.1640625 51.06054688 39.390625 50.99609375 38.59375 50.9296875 C36.4375 50.25 36.4375 50.25 34.63671875 48.7734375 C32.77823666 44.86275532 33.37600176 41.23644026 33.75 37 C33.81123047 36.15953125 33.87246094 35.3190625 33.93554688 34.453125 C34.08835825 32.38429401 34.26100162 30.31694492 34.4375 28.25 C30.66652351 29.60051953 30.66652351 29.60051953 27.6875 32.1875 C26.12156421 36.02404269 25.93448917 39.51275168 25.74609375 43.62890625 C25.43388648 46.28069209 24.77683614 47.9639845 23.4375 50.25 C21.1275 50.25 18.8175 50.25 16.4375 50.25 C15.47088637 47.12819599 15.44761091 44.72916205 15.875 41.5 C15.97683594 40.70078125 16.07867187 39.9015625 16.18359375 39.078125 C16.26738281 38.47484375 16.35117187 37.8715625 16.4375 37.25 C13.33594332 37.90415113 13.33594332 37.90415113 12.375 40.2109375 C12.065625 41.00757813 11.75625 41.80421875 11.4375 42.625 C10.18745084 45.82304243 9.12642695 48.05852454 6.4375 50.25 C3.22976388 51.31924537 0.80765182 51.41684956 -2.5625 51.4375 C-3.614375 51.45167969 -4.66625 51.46585938 -5.75 51.48046875 C-8.5625 51.25 -8.5625 51.25 -11.5625 49.25 C-10.71945313 49.00765625 -9.87640625 48.7653125 -9.0078125 48.515625 C-7.91210938 48.18046875 -6.81640625 47.8453125 -5.6875 47.5 C-4.05167969 47.01273438 -4.05167969 47.01273438 -2.3828125 46.515625 C0.88711312 45.4056571 0.88711312 45.4056571 2.4375 41.25 C-2.5125 41.745 -2.5125 41.745 -7.5625 42.25 C-7.8925 43.57 -8.2225 44.89 -8.5625 46.25 C-10.2125 45.59 -11.8625 44.93 -13.5625 44.25 C-14.2225 44.91 -14.8825 45.57 -15.5625 46.25 C-15.5625 44.93 -15.5625 43.61 -15.5625 42.25 C-14.9025 42.25 -14.2425 42.25 -13.5625 42.25 C-13.5625 41.59 -13.5625 40.93 -13.5625 40.25 C-10.72980334 38.83365167 -8.08783562 38.9036995 -4.9375 38.6875 C-3.74898437 38.60371094 -2.56046875 38.51992188 -1.3359375 38.43359375 C-0.42070313 38.37300781 0.49453125 38.31242187 1.4375 38.25 C-1.9924425 28.69372596 -1.9924425 28.69372596 -8.5625 21.25 C-8.645 21.889375 -8.7275 22.52875 -8.8125 23.1875 C-10.63177523 30.61620719 -13.87396546 37.95535411 -20.296875 42.46875 C-25.06464139 45.32125981 -28.8272555 46.39316536 -34.3125 46.3125 C-35.11171875 46.30347656 -35.9109375 46.29445312 -36.734375 46.28515625 C-37.33765625 46.27355469 -37.9409375 46.26195312 -38.5625 46.25 C-38.5625 45.26 -38.5625 44.27 -38.5625 43.25 C-37.263125 43.023125 -35.96375 42.79625 -34.625 42.5625 C-28.25833105 41.13652683 -22.8211866 38.5086866 -18.1875 33.875 C-14.36703662 27.70348223 -13.1447664 23.20068466 -13.5 16.0625 C-13.86234318 7.71318798 -13.86234318 7.71318798 -11.5625 4.25 C-10.9025 4.25 -10.2425 4.25 -9.5625 4.25 C-9.5625 3.59 -9.5625 2.93 -9.5625 2.25 C-6.28561897 0.29781556 -3.79180273 -0.02063566 0 0 Z " transform="translate(41.5625,17.75)" style="fill: #6D4A96;"/><path d="M0 0 C5.74303623 0.04469289 8.68283464 1.18283464 12.75 5.25 C12.42889311 8.78217579 11.87183498 11.88449506 10.75 15.25 C8.71875 16.56640625 8.71875 16.56640625 6.25 17.8125 C2.84741461 19.36619318 2.84741461 19.36619318 0.75 22.25 C6.36552703 21.99532757 10.03016745 21.26390604 14.859375 18.18359375 C18.51553056 16.37817809 22.7125003 15.87803604 26.75 16.25 C29.05078125 17.55859375 29.05078125 17.55859375 30.75 19.25 C30.75 20.24 30.75 21.23 30.75 22.25 C30.19828125 22.08628906 29.6465625 21.92257813 29.078125 21.75390625 C26.48385993 21.19239586 24.15164589 21.15260992 21.5 21.1875 C20.60796875 21.19652344 19.7159375 21.20554687 18.796875 21.21484375 C18.12140625 21.22644531 17.4459375 21.23804687 16.75 21.25 C16.09 22.57 15.43 23.89 14.75 25.25 C14.09 25.25 13.43 25.25 12.75 25.25 C13.20822468 28.71941546 13.64131683 31.92395049 14.75 35.25 C12.77 35.25 10.79 35.25 8.75 35.25 C8.75 34.59 8.75 33.93 8.75 33.25 C7.43 33.25 6.11 33.25 4.75 33.25 C4.75 34.24 4.75 35.23 4.75 36.25 C6.02875 36.559375 7.3075 36.86875 8.625 37.1875 C10.85101675 37.72605244 12.69739999 38.2237 14.75 39.25 C15 41.5625 15 41.5625 14.75 44.25 C12.30609819 47.20304802 10.65611726 47.25894121 6.8125 47.625 C3.0410743 47.50604965 0.92749982 46.28006933 -2.25 44.25 C-4.59038812 44.46276256 -5.95599895 45.06954418 -7.94921875 46.29296875 C-11.05146971 47.58337874 -13.65413619 47.44191728 -17 47.375 C-18.17046875 47.35695312 -19.3409375 47.33890625 -20.546875 47.3203125 C-21.43890625 47.29710937 -22.3309375 47.27390625 -23.25 47.25 C-23.27684679 44.60409986 -23.29676357 41.95846904 -23.3125 39.3125 C-23.32087891 38.55775391 -23.32925781 37.80300781 -23.33789062 37.02539062 C-23.34652441 35.10005687 -23.30224333 33.17464419 -23.25 31.25 C-21.51043342 29.51043342 -19.0563378 29.87809614 -16.6875 29.6875 C-15.67558594 29.60371094 -14.66367188 29.51992187 -13.62109375 29.43359375 C-12.83863281 29.37300781 -12.05617188 29.31242187 -11.25 29.25 C-11.0334375 28.321875 -11.0334375 28.321875 -10.8125 27.375 C-10.25 25.25 -10.25 25.25 -9.25 23.25 C-6.61 23.25 -3.97 23.25 -1.25 23.25 C-1.91 22.92 -2.57 22.59 -3.25 22.25 C-5.25 20.25 -5.25 20.25 -5.48046875 18.33984375 C-5.43992254 16.30884737 -5.3466239 14.2791018 -5.25 12.25 C-5.58 11.59 -5.91 10.93 -6.25 10.25 C-6.25 12.89 -6.25 15.53 -6.25 18.25 C-7.24 18.58 -8.23 18.91 -9.25 19.25 C-9.25 17.93 -9.25 16.61 -9.25 15.25 C-9.91 14.92 -10.57 14.59 -11.25 14.25 C-11.25 16.56 -11.25 18.87 -11.25 21.25 C-11.91 20.92 -12.57 20.59 -13.25 20.25 C-13.04766165 18.01823823 -12.81197726 15.78948507 -12.5625 13.5625 C-12.43488281 12.32113281 -12.30726562 11.07976563 -12.17578125 9.80078125 C-11.08432971 5.61458104 -9.50511312 4.01300153 -6.25 1.25 C-4.535532 -0.464468 -2.33657934 0.03748523 0 0 Z " transform="translate(103.25,41.75)" style="fill: #FAF7FA;"/><path d="M0 0 C1.98 0 3.96 0 6 0 C6 4.29 6 8.58 6 13 C8.97 13 11.94 13 15 13 C15 8.71 15 4.42 15 0 C19.29 0 23.58 0 28 0 C28 0.99 28 1.98 28 3 C25.36 3 22.72 3 20 3 C20 4.32 20 5.64 20 7 C21.2375 6.979375 22.475 6.95875 23.75 6.9375 C26.70214605 6.92708679 29.14276348 7.25923498 32 8 C32.99 7.67 33.98 7.34 35 7 C36.15835673 4.02496878 36.15835673 4.02496878 37 1 C38 0 38 0 41.5625 -0.0625 C42.696875 -0.041875 43.83125 -0.02125 45 0 C46.0044134 2.2898234 47.00367612 4.5816599 48 6.875 C48.28617188 7.52597656 48.57234375 8.17695312 48.8671875 8.84765625 C51 13.7734375 51 13.7734375 51 16 C49.33388095 16.042721 47.66617115 16.04063832 46 16 C45.505 15.505 45.505 15.505 45 15 C42.32941149 14.85884839 39.67567762 14.95752893 37 15 C36.67 15.66 36.34 16.32 36 17 C24.12 17 12.24 17 0 17 C0 11.39 0 5.78 0 0 Z " transform="translate(26,72)" style="fill: #C1B2D0;"/><path d="M0 0 C5.74303623 0.04469289 8.68283464 1.18283464 12.75 5.25 C12.42889311 8.78217579 11.87183498 11.88449506 10.75 15.25 C8.71875 16.56640625 8.71875 16.56640625 6.25 17.8125 C2.84741461 19.36619318 2.84741461 19.36619318 0.75 22.25 C6.36552703 21.99532757 10.03016745 21.26390604 14.859375 18.18359375 C18.51553056 16.37817809 22.7125003 15.87803604 26.75 16.25 C29.05078125 17.55859375 29.05078125 17.55859375 30.75 19.25 C30.75 20.24 30.75 21.23 30.75 22.25 C30.0075 22.0025 30.0075 22.0025 29.25 21.75 C22.35792926 20.37158585 18.5918375 21.13233828 12.3125 24.25 C6.93529538 26.88258976 2.71292832 28.50724392 -3.25 27.25 C-6.8125 25.75 -6.8125 25.75 -9.25 24.25 C-9.25 23.92 -9.25 23.59 -9.25 23.25 C-6.61 23.25 -3.97 23.25 -1.25 23.25 C-1.91 22.92 -2.57 22.59 -3.25 22.25 C-5.25 20.25 -5.25 20.25 -5.48046875 18.33984375 C-5.43992254 16.30884737 -5.3466239 14.2791018 -5.25 12.25 C-5.58 11.59 -5.91 10.93 -6.25 10.25 C-6.25 12.89 -6.25 15.53 -6.25 18.25 C-7.24 18.58 -8.23 18.91 -9.25 19.25 C-9.25 17.93 -9.25 16.61 -9.25 15.25 C-9.91 14.92 -10.57 14.59 -11.25 14.25 C-11.25 16.56 -11.25 18.87 -11.25 21.25 C-11.91 20.92 -12.57 20.59 -13.25 20.25 C-13.04766165 18.01823823 -12.81197726 15.78948507 -12.5625 13.5625 C-12.43488281 12.32113281 -12.30726562 11.07976563 -12.17578125 9.80078125 C-11.08432971 5.61458104 -9.50511312 4.01300153 -6.25 1.25 C-4.535532 -0.464468 -2.33657934 0.03748523 0 0 Z " transform="translate(103.25,41.75)" style="fill: #76599A;"/><path d="M0 0 C0.99 0 1.98 0 3 0 C3 3.96 3 7.92 3 12 C7.15737311 13.64361263 9.6873967 14.24838516 14 13 C15.1446875 12.7215625 15.1446875 12.7215625 16.3125 12.4375 C16.869375 12.293125 17.42625 12.14875 18 12 C18.495 13.98 18.495 13.98 19 16 C15.3558226 18.4294516 13.28758728 18.16179575 9 18 C8.01 19.98 7.02 21.96 6 24 C5.34 24 4.68 24 4 24 C3.67 24.66 3.34 25.32 3 26 C-2.94 25.01 -2.94 25.01 -9 24 C-9 22.68 -9 21.36 -9 20 C-6.36 20 -3.72 20 -1 20 C-1 19.01 -1 18.02 -1 17 C-5.29 17 -9.58 17 -14 17 C-14.33 17.99 -14.66 18.98 -15 20 C-15.33 18.68 -15.66 17.36 -16 16 C-16.67546875 15.90203125 -17.3509375 15.8040625 -18.046875 15.703125 C-25.30205427 14.48693888 -25.30205427 14.48693888 -28.6875 12.125 C-30 10 -30 10 -29.75 7.75 C-29.37875 6.88375 -29.37875 6.88375 -29 6 C-25 6 -25 6 -22 8 C-21.67 7.01 -21.34 6.02 -21 5 C-17.52674819 3.8422494 -14.63932552 3.93133348 -11 4 C-11.18359375 5.828125 -11.18359375 5.828125 -12 8 C-14.28515625 9.484375 -14.28515625 9.484375 -17.0625 10.75 C-18.44115234 11.39195313 -18.44115234 11.39195313 -19.84765625 12.046875 C-20.55792969 12.36140625 -21.26820312 12.6759375 -22 13 C-20.10489301 13.08160748 -18.20875496 13.13946459 -16.3125 13.1875 C-14.72888672 13.23970703 -14.72888672 13.23970703 -13.11328125 13.29296875 C-9.52080804 12.95490665 -7.81618228 12.23751469 -5 10 C-3.35437454 7.54807689 -3.35437454 7.54807689 -2.1875 4.8125 C-1.76855469 3.91144531 -1.34960938 3.01039062 -0.91796875 2.08203125 C-0.46357422 1.05142578 -0.46357422 1.05142578 0 0 Z " transform="translate(55,55)" style="fill: #FAF5FA;"/><path d="M0 0 C1.32 0 2.64 0 4 0 C3.97679688 1.25296875 3.95359375 2.5059375 3.9296875 3.796875 C3.91092573 5.4479107 3.89272597 7.09895285 3.875 8.75 C3.85824219 9.575 3.84148437 10.4 3.82421875 11.25 C3.81777344 12.04921875 3.81132813 12.8484375 3.8046875 13.671875 C3.79421387 14.4050293 3.78374023 15.13818359 3.77294922 15.89355469 C4.03222456 18.29896076 4.80774075 19.91251494 6 22 C13.05451029 22.44139571 13.05451029 22.44139571 19 19 C21.75 19.3125 21.75 19.3125 24 20 C23.01 20.66 22.02 21.32 21 22 C20.67 23.32 20.34 24.64 20 26 C16.37 26.33 12.74 26.66 9 27 C7.29915181 32.32932432 6.47986031 37.43109483 6 43 C4.02 43 2.04 43 0 43 C0 42.67 0 42.34 0 42 C1.65 42 3.3 42 5 42 C4.54367188 41.13117188 4.08734375 40.26234375 3.6171875 39.3671875 C3.04226562 38.21476562 2.46734375 37.06234375 1.875 35.875 C1.29492188 34.73804688 0.71484375 33.60109375 0.1171875 32.4296875 C-1.20336726 28.37567673 -0.67486729 26.82668355 1 23 C1 22.34 1 21.68 1 21 C0.175 21.515625 -0.65 22.03125 -1.5 22.5625 C-5.98923493 24.40629292 -8.29648165 23.89204658 -13 23 C-13 22.67 -13 22.34 -13 22 C-11.02 21.67 -9.04 21.34 -7 21 C-6.01009385 18.03028156 -5.87133779 15.85278074 -5.75 12.75 C-5.27239961 7.04153815 -3.95670895 4.14074192 0 0 Z " transform="translate(72,46)" style="fill: #F6F0F9;"/><path d="M0 0 C6.84405941 0.07332921 6.84405941 0.07332921 10 1.9375 C12.3125 4.3125 12.3125 4.3125 13.375 7.25 C13.30026073 10.91222445 12.59865127 12.47451911 10.3125 15.3125 C6.80273406 17.66315155 3.7067582 17.52038516 -0.4375 17.4375 C-1.60796875 17.41945313 -2.7784375 17.40140625 -3.984375 17.3828125 C-4.87640625 17.35960938 -5.7684375 17.33640625 -6.6875 17.3125 C-6.71434679 14.66659986 -6.73426357 12.02096904 -6.75 9.375 C-6.75837891 8.62025391 -6.76675781 7.86550781 -6.77539062 7.08789062 C-6.78402441 5.16255687 -6.73974333 3.23714419 -6.6875 1.3125 C-4.90677258 -0.46822742 -2.41106123 0.05634706 0 0 Z " transform="translate(86.6875,71.6875)" style="fill: #8065A1;"/><path d="M0 0 C5.74303623 0.04469289 8.68283464 1.18283464 12.75 5.25 C12.875 7.875 12.875 7.875 12.75 10.25 C12.42 8.93 12.09 7.61 11.75 6.25 C10.43 6.25 9.11 6.25 7.75 6.25 C7.09 6.25 6.43 6.25 5.75 6.25 C6.08 7.57 6.41 8.89 6.75 10.25 C6.09 10.25 5.43 10.25 4.75 10.25 C4.13125 11.219375 3.5125 12.18875 2.875 13.1875 C0.75 16.25 0.75 16.25 -1.5 17.125 C-2.0775 17.16625 -2.655 17.2075 -3.25 17.25 C-4.24 14.94 -5.23 12.63 -6.25 10.25 C-6.25 12.89 -6.25 15.53 -6.25 18.25 C-7.24 18.58 -8.23 18.91 -9.25 19.25 C-9.25 17.93 -9.25 16.61 -9.25 15.25 C-9.91 14.92 -10.57 14.59 -11.25 14.25 C-11.25 16.56 -11.25 18.87 -11.25 21.25 C-11.91 20.92 -12.57 20.59 -13.25 20.25 C-13.04766165 18.01823823 -12.81197726 15.78948507 -12.5625 13.5625 C-12.43488281 12.32113281 -12.30726562 11.07976563 -12.17578125 9.80078125 C-11.08432971 5.61458104 -9.50511312 4.01300153 -6.25 1.25 C-4.535532 -0.464468 -2.33657934 0.03748523 0 0 Z " transform="translate(103.25,41.75)" style="fill: #705397;"/><path d="M0 0 C2.31 0 4.62 0 7 0 C8.0044134 2.2898234 9.00367612 4.5816599 10 6.875 C10.28617188 7.52597656 10.57234375 8.17695312 10.8671875 8.84765625 C13 13.7734375 13 13.7734375 13 16 C11.33388095 16.042721 9.66617115 16.04063832 8 16 C7.67 15.67 7.34 15.34 7 15 C5.12678052 14.83946185 5.12678052 14.83946185 3 14.875 C2.278125 14.87242188 1.55625 14.86984375 0.8125 14.8671875 C-1.02089415 14.80304724 -1.02089415 14.80304724 -2 16 C-3.66617115 16.04063832 -5.33388095 16.042721 -7 16 C-5.35433477 10.31497465 -2.70967216 5.23318364 0 0 Z " transform="translate(64,72)" style="fill: #735D97;"/><path d="M0 0 C3.02810548 1.05983692 3.96661945 1.94679017 5.703125 4.71484375 C6.21359375 5.77832031 6.7240625 6.84179688 7.25 7.9375 C7.77078125 8.99839844 8.2915625 10.05929688 8.828125 11.15234375 C10 14 10 14 10 17 C8.92878906 17.12117188 7.85757813 17.24234375 6.75390625 17.3671875 C5.35671248 17.53597601 3.95958009 17.70527313 2.5625 17.875 C1.85544922 17.95363281 1.14839844 18.03226563 0.41992188 18.11328125 C-1.39673432 18.33927676 -3.20062522 18.66300727 -5 19 C-5.33 19.66 -5.66 20.32 -6 21 C-7.98 21 -9.96 21 -12 21 C-11.113125 20.071875 -10.22625 19.14375 -9.3125 18.1875 C-4.76163768 12.91410741 -2.18602342 6.55807026 0 0 Z " transform="translate(33,39)" style="fill: #F4EDF7;"/><path d="M0 0 C3.04846918 0.06381659 4.45549831 0.22154787 7.1875 1.6875 C8.625 3.3125 8.625 3.3125 8.625 5.3125 C6.645 5.3125 4.665 5.3125 2.625 5.3125 C2.625 4.6525 2.625 3.9925 2.625 3.3125 C1.305 3.3125 -0.015 3.3125 -1.375 3.3125 C-1.375 4.3025 -1.375 5.2925 -1.375 6.3125 C0.543125 6.7765625 0.543125 6.7765625 2.5 7.25 C4.72601675 7.78855244 6.57239999 8.2862 8.625 9.3125 C8.875 11.625 8.875 11.625 8.625 14.3125 C6.85013338 16.4571305 5.46960623 17.18615521 2.71875 17.59765625 C-0.70748854 17.74467768 -2.83158046 17.61138075 -5.875 15.9375 C-7.375 14.3125 -7.375 14.3125 -7.375 12.3125 C-3.745 12.6425 -0.115 12.9725 3.625 13.3125 C3.625 12.6525 3.625 11.9925 3.625 11.3125 C2.99851562 11.19132812 2.37203125 11.07015625 1.7265625 10.9453125 C0.50066406 10.69394531 0.50066406 10.69394531 -0.75 10.4375 C-1.56210938 10.27507812 -2.37421875 10.11265625 -3.2109375 9.9453125 C-5.375 9.3125 -5.375 9.3125 -7.375 7.3125 C-6.84353692 1.99786917 -5.38250849 0.02682313 0 0 Z " transform="translate(109.375,71.6875)" style="fill: #715893;"/><path d="M0 0 C4.29 0 8.58 0 13 0 C13 0.99 13 1.98 13 3 C10.36 3 7.72 3 5 3 C5 4.32 5 5.64 5 7 C7.31 7 9.62 7 12 7 C12 7.99 12 8.98 12 10 C9.69 10 7.38 10 5 10 C5 11.32 5 12.64 5 14 C7.64 14 10.28 14 13 14 C13 14.66 13 15.32 13 16 C8.71 16 4.42 16 0 16 C0 10.72 0 5.44 0 0 Z " transform="translate(41,72)" style="fill: #624984;"/><path d="M0 0 C1.32 0.33 2.64 0.66 4 1 C3.67 1.66 3.34 2.32 3 3 C2.67 3 2.34 3 2 3 C1.34 6.63 0.68 10.26 0 14 C-5.445 14.495 -5.445 14.495 -11 15 C-11.33 16.32 -11.66 17.64 -12 19 C-14.475 18.01 -14.475 18.01 -17 17 C-17.66 17.66 -18.32 18.32 -19 19 C-19 17.68 -19 16.36 -19 15 C-18.34 15 -17.68 15 -17 15 C-17 14.34 -17 13.68 -17 13 C-14.16730334 11.58365167 -11.52533562 11.6536995 -8.375 11.4375 C-6.59222656 11.31181641 -6.59222656 11.31181641 -4.7734375 11.18359375 C-3.85820313 11.12300781 -2.94296875 11.06242187 -2 11 C-2.66 8.36 -3.32 5.72 -4 3 C-3.01 2.67 -2.02 2.34 -1 2 C-0.67 1.34 -0.34 0.68 0 0 Z " transform="translate(45,45)" style="fill: #6A4C8D;"/><path d="M0 0 C1.32 0.66 2.64 1.32 4 2 C4.04681521 5.12993144 3.88825643 7.98720041 3 11 C-0.14369565 14.15216922 -4.61865518 15.63488793 -9 16 C-9.99 15.67 -10.98 15.34 -12 15 C-12 14.34 -12 13.68 -12 13 C-11.2575 12.79375 -10.515 12.5875 -9.75 12.375 C-5.34425955 10.17212978 -3.52275683 6.56827048 -2 2 C-1.34 2 -0.68 2 0 2 C0 1.34 0 0.68 0 0 Z " transform="translate(111,46)" style="fill: #6A4A94;"/><path d="M0 0 C0.94875 0.04125 1.8975 0.0825 2.875 0.125 C3.91034166 4.43892359 4.20497558 6.46504883 2.1875 10.5 C-0.0451228 13.03432858 -0.83376303 13.88991164 -4.125 14.125 C-5.36387548 11.64724905 -5.29241669 9.88846293 -5.3125 7.125 C-5.32667969 6.238125 -5.34085937 5.35125 -5.35546875 4.4375 C-4.97390868 0.60896508 -3.71436013 0.14857441 0 0 Z " transform="translate(104.125,44.875)" style="fill: #F3E8F9;"/><path d="M0 0 C-0.19921875 1.83203125 -0.19921875 1.83203125 -1 4 C-3.14453125 5.44921875 -3.14453125 5.44921875 -5.8125 6.6875 C-7.12154297 7.31205078 -7.12154297 7.31205078 -8.45703125 7.94921875 C-12.6335285 9.67499104 -12.6335285 9.67499104 -15 10 C-17.3125 8.3125 -17.3125 8.3125 -19 6 C-18.75 3.75 -18.75 3.75 -18 2 C-14 2 -14 2 -11 4 C-10.67 3.01 -10.34 2.02 -10 1 C-6.52674819 -0.1577506 -3.63932552 -0.06866652 0 0 Z " transform="translate(44,59)" style="fill: #6F469C;"/><path d="M0 0 C7.32026144 -0.36601307 7.32026144 -0.36601307 10.4375 1.3125 C13.2348088 4.3335935 13.11334674 7.27230127 13.0625 11.1875 C13.05347656 12.08855469 13.04445313 12.98960938 13.03515625 13.91796875 C13.02355469 14.60503906 13.01195313 15.29210938 13 16 C12.67 16 12.34 16 12 16 C11.67 12.04 11.34 8.08 11 4 C9.68 4 8.36 4 7 4 C6.01 4 5.02 4 4 4 C4.33 4.66 4.66 5.32 5 6 C5.02577436 9.416944 4.97155836 12.81931013 4.87304688 16.234375 C4.84323313 18.15648463 4.91515176 20.07953259 5 22 C7.6855594 24.6855594 10.37621328 25.06049974 14 26 C14 26.33 14 26.66 14 27 C12.5613506 26.93967927 11.12388098 26.85079867 9.6875 26.75 C8.88699219 26.70359375 8.08648437 26.6571875 7.26171875 26.609375 C5 26 5 26 3.22265625 24.55859375 C1.31283904 20.56201141 1.64627937 16.67849011 1.75 12.3125 C1.75515625 11.43271484 1.7603125 10.55292969 1.765625 9.64648438 C1.8457138 3.1542862 1.8457138 3.1542862 3 2 C2.01 1.34 1.02 0.68 0 0 Z " transform="translate(73,42)" style="fill: #786094;"/><path d="M0 0 C0.33 0 0.66 0 1 0 C1.25 2.25 1.25 2.25 1 5 C-1.2477854 7.79035429 -2.57730016 8.85910005 -6 10 C-7.99741736 10.1192902 -9.99906124 10.17523935 -12 10.1875 C-13.051875 10.20167969 -14.10375 10.21585938 -15.1875 10.23046875 C-18 10 -18 10 -21 8 C-19.06441401 7.32779649 -17.12645628 6.66241923 -15.1875 6 C-14.10855469 5.62875 -13.02960937 5.2575 -11.91796875 4.875 C-9 4 -9 4 -6 4 C-6 3.01 -6 2.02 -6 1 C-5.01 1 -4.02 1 -3 1 C-3 1.99 -3 2.98 -3 4 C-2.34 4 -1.68 4 -1 4 C-0.67 2.68 -0.34 1.36 0 0 Z " transform="translate(51,59)" style="fill: #6B4695;"/><path d="M0 0 C-1.59812499 1.75793749 -2.80497411 2.91467617 -5 3.875 C-7.93594502 5.52646907 -8.66171143 6.87732667 -10 10 C-10.35685342 12.79673498 -10.56250562 15.56262289 -10.69140625 18.37890625 C-11.00361352 21.03069209 -11.66066386 22.7139845 -13 25 C-15.31 25 -17.62 25 -20 25 C-19.67 21.04 -19.34 17.08 -19 13 C-18.67 13 -18.34 13 -18 13 C-18 16.63 -18 20.26 -18 24 C-17.01 24 -16.02 24 -15 24 C-13.25077067 17.0030827 -12.46247533 10.19270839 -12 3 C-10.68 3 -9.36 3 -8 3 C-8 2.34 -8 1.68 -8 1 C-5.29120665 -0.35439668 -2.99066732 -0.06501451 0 0 Z " transform="translate(78,43)" style="fill: #644584;"/><path d="M0 0 C1.32 0.33 2.64 0.66 4 1 C3.85930804 3.12534659 3.71229079 5.25027529 3.5625 7.375 C3.48128906 8.55835938 3.40007812 9.74171875 3.31640625 10.9609375 C3 14 3 14 2 16 C0.35 16 -1.3 16 -3 16 C-2.52013969 10.43109483 -1.70084819 5.32932432 0 0 Z " transform="translate(88,48)" style="fill: #F9F4F7;"/><path d="M0 0 C1.625 1.6875 1.625 1.6875 1.625 4.6875 C1.13 4.5225 0.635 4.3575 0.125 4.1875 C-6.54077467 2.85434507 -10.46086837 3.52412727 -16.375 6.6875 C-17.365 6.3575 -18.355 6.0275 -19.375 5.6875 C-14.36007242 0.08258094 -7.35553132 -4.06489889 0 0 Z " transform="translate(132.375,59.3125)" style="fill: #685188;"/><path d="M0 0 C1.32 0 2.64 0 4 0 C4.33 3.96 4.66 7.92 5 12 C7.97 12.495 7.97 12.495 11 13 C11 13.66 11 14.32 11 15 C7.37 15 3.74 15 0 15 C0 10.05 0 5.1 0 0 Z " transform="translate(27,73)" style="fill: #604483;"/><path d="M0 0 C0.99 0.33 1.98 0.66 3 1 C3 2.32 3 3.64 3 5 C3.30830925 7.00401011 3.63729412 9.00511766 4 11 C5.6396875 10.938125 5.6396875 10.938125 7.3125 10.875 C11 11 11 11 14 13 C13 14 13 14 9.83984375 14.09765625 C7.90818359 14.08025391 7.90818359 14.08025391 5.9375 14.0625 C4.64714844 14.05347656 3.35679688 14.04445313 2.02734375 14.03515625 C1.02832031 14.02355469 0.02929688 14.01195313 -1 14 C-1.02694851 12.04174127 -1.04637218 10.08337774 -1.0625 8.125 C-1.07410156 7.03445312 -1.08570312 5.94390625 -1.09765625 4.8203125 C-1 2 -1 2 0 0 Z " transform="translate(82,74)" style="fill: #614683;"/><path d="M0 0 C0.99 0 1.98 0 3 0 C3 1.98 3 3.96 3 6 C7.95 7.98 7.95 7.98 13 10 C13 10.66 13 11.32 13 12 C9.04 11.67 5.08 11.34 1 11 C0.67 11.66 0.34 12.32 0 13 C-0.66 12.34 -1.32 11.68 -2 11 C-1.625 8 -1.625 8 -1 5 C-1 4.34 -1 3.68 -1 3 C-1.99 2.67 -2.98 2.34 -4 2 C-3.34 1.67 -2.68 1.34 -2 1 C-1.34 1.33 -0.68 1.66 0 2 C0 1.34 0 0.68 0 0 Z " transform="translate(100,73)" style="fill: #FDF2FB;"/><path d="M0 0 C0.33 2.31 0.66 4.62 1 7 C1.66 7 2.32 7 3 7 C5.43160605 10.36683915 6 11.73350364 6 16 C3.525 15.01 3.525 15.01 1 14 C1 13.34 1 12.68 1 12 C0.34 11.67 -0.32 11.34 -1 11 C-0.67 10.34 -0.34 9.68 0 9 C-1.65 8.67 -3.3 8.34 -5 8 C-3.91891892 0 -3.91891892 0 0 0 Z " transform="translate(35,24)" style="fill: #6F44A3;"/><path d="M0 0 C2.875 -0.125 2.875 -0.125 6 0 C8 2 8 2 8.3125 4.5 C8.1578125 5.7375 8.1578125 5.7375 8 7 C4.77208445 9.1519437 3.71599191 9.20086443 0 9 C0 6.03 0 3.06 0 0 Z " transform="translate(86,76)" style="fill: #FBF6FA;"/><path d="M0 0 C0.67119549 1.4562545 1.33681807 2.91507867 2 4.375 C2.556875 5.59316406 2.556875 5.59316406 3.125 6.8359375 C4 9 4 9 4 11 C2.35 11 0.7 11 -1 11 C-1.33 10.01 -1.66 9.02 -2 8 C-4.31 8 -6.62 8 -9 8 C-9 7.34 -9 6.68 -9 6 C-7.35 6 -5.7 6 -4 6 C-4 4.35 -4 2.7 -4 1 C-2 0 -2 0 0 0 Z " transform="translate(73,77)" style="fill: #644884;"/><path d="M0 0 C0.33 0.66 0.66 1.32 1 2 C-4.54165256 5.77304004 -8.34454208 6.54330269 -15 6 C-13.80134132 2.40402397 -12.25286152 1.49586719 -8.984375 -0.2734375 C-5.76302661 -1.45290758 -3.22980749 -0.9043461 0 0 Z " transform="translate(119,58)" style="fill: #F7EFF2;"/><path d="M0 0 C0.99 0.66 1.98 1.32 3 2 C2.44601306 7.40137266 0.71940093 12.31137771 -2 17 C-2.99 17.66 -3.98 18.32 -5 19 C-5 18.01 -5 17.02 -5 16 C-6.485 16.99 -6.485 16.99 -8 18 C-6.92851916 15.84707106 -5.84618418 13.70099355 -4.74609375 11.5625 C-4.31425781 10.716875 -3.88242187 9.87125 -3.4375 9 C-3.00308594 8.154375 -2.56867187 7.30875 -2.12109375 6.4375 C-1.12654496 4.27513608 -0.47847721 2.32249614 0 0 Z " transform="translate(29,38)" style="fill: #664F90;"/><path d="M0 0 C0.66 0 1.32 0 2 0 C2 0.99 2 1.98 2 3 C2.99 2.67 3.98 2.34 5 2 C5.66 2.66 6.32 3.32 7 4 C5.68 4 4.36 4 3 4 C3.309375 4.7734375 3.309375 4.7734375 3.625 5.5625 C4.17120185 9.11281203 3.23418286 11.66770627 2 15 C0.515 15.99 0.515 15.99 -1 17 C-1 14.03 -1 11.06 -1 8 C-0.34 8 0.32 8 1 8 C1 6.35 1 4.7 1 3 C0.34 3 -0.32 3 -1 3 C-0.67 2.01 -0.34 1.02 0 0 Z " transform="translate(63,42)" style="fill: #7242A1;"/><path d="M0 0 C1.65 0.33 3.3 0.66 5 1 C4.67 1.99 4.34 2.98 4 4 C3.34 4 2.68 4 2 4 C1.67 4.99 1.34 5.98 1 7 C0.01 7.495 0.01 7.495 -1 8 C-1.46751788 10.35599235 -1.46751788 10.35599235 -1.625 13.0625 C-1.69976563 13.98160156 -1.77453125 14.90070312 -1.8515625 15.84765625 C-1.90054687 16.55792969 -1.94953125 17.26820312 -2 18 C-4.29634463 13.91760955 -4.49015885 10.59995225 -4 6 C-3 3.5 -3 3.5 -2 2 C-1.34 2 -0.68 2 0 2 C0 1.34 0 0.68 0 0 Z " transform="translate(32,20)" style="fill: #725299;"/><path d="M0 0 C-0.3125 1.875 -0.3125 1.875 -1 4 C-4.22791555 6.1519437 -5.28400809 6.20086443 -9 6 C-9.33 4.35 -9.66 2.7 -10 1 C-6.52674819 -0.1577506 -3.63932552 -0.06866652 0 0 Z " transform="translate(44,59)" style="fill: #F1E2F8;"/><path d="M0 0 C4.29 0 8.58 0 13 0 C13 0.99 13 1.98 13 3 C12.28972656 3.04898438 11.57945313 3.09796875 10.84765625 3.1484375 C9.46900391 3.26058594 9.46900391 3.26058594 8.0625 3.375 C7.14597656 3.44460937 6.22945312 3.51421875 5.28515625 3.5859375 C4.53105469 3.72257812 3.77695312 3.85921875 3 4 C2.67 4.66 2.34 5.32 2 6 C1.34 4.02 0.68 2.04 0 0 Z " transform="translate(41,72)" style="fill: #6B588E;"/><path d="M0 0 C1.32 0.66 2.64 1.32 4 2 C3.67 3.32 3.34 4.64 3 6 C1.234375 6.6484375 1.234375 6.6484375 -1 7 C-2.921875 6.0390625 -2.921875 6.0390625 -4.75 4.625 C-5.67039063 3.93277344 -5.67039063 3.93277344 -6.609375 3.2265625 C-7.06828125 2.82179688 -7.5271875 2.41703125 -8 2 C-8 1.67 -8 1.34 -8 1 C-5.36 1.33 -2.72 1.66 0 2 C0 1.34 0 0.68 0 0 Z " transform="translate(46,18)" style="fill: #674989;"/><path d="M0 0 C0.33 0 0.66 0 1 0 C1 5.28 1 10.56 1 16 C1.99 16 2.98 16 4 16 C4 16.66 4 17.32 4 18 C3.34 18 2.68 18 2 18 C2.20625 18.9075 2.4125 19.815 2.625 20.75 C3.0127245 24.11027897 2.80411967 25.24075815 1 28 C0.07840421 21.78829926 -0.12177385 15.77390894 -0.0625 9.5 C-0.05798828 8.5821875 -0.05347656 7.664375 -0.04882812 6.71875 C-0.03716326 4.47909609 -0.02079614 2.23958455 0 0 Z " transform="translate(60,32)" style="fill: #64408C;"/><path d="M0 0 C0.25 5.625 0.25 5.625 -2 9 C-2.99 9 -3.98 9 -5 9 C-5.6875 6.1875 -5.6875 6.1875 -6 3 C-4.11242974 0.16864461 -3.46862106 0 0 0 Z " transform="translate(106,45)" style="fill: #FEFBF3;"/><path d="M0 0 C1.32 0.33 2.64 0.66 4 1 C2.66666667 3.66666667 1.33333333 6.33333333 0 9 C-0.99 8.67 -1.98 8.34 -3 8 C-3 8.99 -3 9.98 -3 11 C-3.66 10.67 -4.32 10.34 -5 10 C-4.34 8.02 -3.68 6.04 -3 4 C-2.34 4 -1.68 4 -1 4 C-0.67 2.68 -0.34 1.36 0 0 Z " transform="translate(48,52)" style="fill: #6E44A7;"/><path d="M0 0 C0.66 0.33 1.32 0.66 2 1 C1.67 2.98 1.34 4.96 1 7 C1.99 7.33 2.98 7.66 4 8 C4 8.33 4 8.66 4 9 C0.02373258 10.42009551 -3.78152721 11.61650247 -8 12 C-8.66 11.34 -9.32 10.68 -10 10 C-5.05 8.515 -5.05 8.515 0 7 C0 4.69 0 2.38 0 0 Z " transform="translate(92,56)" style="fill: #664587;"/><path d="M0 0 C0.33 1.65 0.66 3.3 1 5 C-0.65 5 -2.3 5 -4 5 C-4 5.66 -4 6.32 -4 7 C-1.69 7 0.62 7 3 7 C3 7.33 3 7.66 3 8 C-1.455 8.495 -1.455 8.495 -6 9 C-6.33 7.68 -6.66 6.36 -7 5 C-2.79545455 0 -2.79545455 0 0 0 Z " transform="translate(68,78)" style="fill: #AD90CA;"/><path d="M0 0 C1.32 0 2.64 0 4 0 C3 3 3 3 1 4 C1 5.65 1 7.3 1 9 C-0.65 9 -2.3 9 -4 9 C-2.94124926 5.59687262 -1.99097846 2.98646769 0 0 Z " transform="translate(61,79)" style="fill: #644780;"/><path d="M0 0 C3.3 0 6.6 0 10 0 C10.66 1.32 11.32 2.64 12 4 C10.02 4 8.04 4 6 4 C6 3.34 6 2.68 6 2 C3.13275314 2.57344937 2.1385485 2.8614515 0 5 C-0.66 4.34 -1.32 3.68 -2 3 C-1.34 2.34 -0.68 1.68 0 1 C0 0.67 0 0.34 0 0 Z " transform="translate(106,73)" style="fill: #634C86;"/><path d="M0 0 C2.64 0.66 5.28 1.32 8 2 C8 2.66 8 3.32 8 4 C4.04 3.67 0.08 3.34 -4 3 C-4.33 3.66 -4.66 4.32 -5 5 C-5.66 4.34 -6.32 3.68 -7 3 C-6.67 2.34 -6.34 1.68 -6 1 C-3.03 1.495 -3.03 1.495 0 2 C0 1.34 0 0.68 0 0 Z " transform="translate(105,81)" style="fill: #EDDEF9;"/><path d="M0 0 C0.33 2.31 0.66 4.62 1 7 C-0.98 6.34 -2.96 5.68 -5 5 C-5.66 5.66 -6.32 6.32 -7 7 C-7 5.68 -7 4.36 -7 3 C-6.34 3 -5.68 3 -5 3 C-5 2.34 -5 1.68 -5 1 C-3 0 -3 0 0 0 Z " transform="translate(33,57)" style="fill: #6F518E;"/><path d="M0 0 C1 2 1 2 0.4375 3.9375 C-1.5350252 6.76764485 -3.88495996 7.64563476 -7 9 C-7.33 7.35 -7.66 5.7 -8 4 C-7.236875 3.71125 -6.47375 3.4225 -5.6875 3.125 C-2.84970692 2.03730987 -2.84970692 2.03730987 0 0 Z " transform="translate(24,53)" style="fill: #6B5399;"/><path d="M0 0 C2.35651971 0.31420263 3.8102945 0.86449607 5.75 2.25 C7.41263573 4.57769003 7.22659445 6.20533514 7 9 C6.67 7.68 6.34 6.36 6 5 C4.68 5 3.36 5 2 5 C1.34 5 0.68 5 0 5 C0.33 6.32 0.66 7.64 1 9 C0.34 8.67 -0.32 8.34 -1 8 C-1.04241723 5.66705225 -1.04092937 3.33297433 -1 1 C-0.67 0.67 -0.34 0.34 0 0 Z " transform="translate(109,43)" style="fill: #775D99;"/><path d="M0 0 C-0.33 0.99 -0.66 1.98 -1 3 C-2.65 3 -4.3 3 -6 3 C-6.33 3.99 -6.66 4.98 -7 6 C-7.33 4.68 -7.66 3.36 -8 2 C-10.31 1.67 -12.62 1.34 -15 1 C-15 0.67 -15 0.34 -15 0 C-12.87562788 -0.19448477 -10.75046809 -0.38038289 -8.625 -0.5625 C-7.44164062 -0.66691406 -6.25828125 -0.77132812 -5.0390625 -0.87890625 C-2 -1 -2 -1 0 0 Z " transform="translate(47,69)" style="fill: #EEE2F3;"/><path d="M0 0 C0.66 0.33 1.32 0.66 2 1 C0.02 1.99 0.02 1.99 -2 3 C-2 4.98 -2 6.96 -2 9 C-4.31 8.67 -6.62 8.34 -9 8 C-6.81981814 3.51851506 -4.65170644 1.78150459 0 0 Z " transform="translate(118,64)" style="fill: #F3E7F7;"/><path d="M0 0 C0.33 0.99 0.66 1.98 1 3 C1.66 3.33 2.32 3.66 3 4 C0.04592092 5.96938605 -1.55211383 6.56901423 -5 7 C-5.99 6.67 -6.98 6.34 -8 6 C-8 5.34 -8 4.68 -8 4 C-7.236875 3.71125 -6.47375 3.4225 -5.6875 3.125 C-2.84970692 2.03730987 -2.84970692 2.03730987 0 0 Z " transform="translate(107,55)" style="fill: #604583;"/><path d="M0 0 C0.99 0.33 1.98 0.66 3 1 C3.625 3.8125 3.625 3.8125 4 7 C3.01 8.485 3.01 8.485 2 10 C1.34 10 0.68 10 0 10 C0.33 8.68 0.66 7.36 1 6 C0.34 6 -0.32 6 -1 6 C-0.67 4.02 -0.34 2.04 0 0 Z " transform="translate(96,75)" style="fill: #694B8E;"/><path d="M0 0 C-2.76223278 2.76223278 -5.20706617 2.57856291 -9 3 C-9 3.66 -9 4.32 -9 5 C-9.99 5.33 -10.98 5.66 -12 6 C-12 4.35 -12 2.7 -12 1 C-10.66961551 0.6550855 -9.33542939 0.32483418 -8 0 C-7.154375 -0.20625 -6.30875 -0.4125 -5.4375 -0.625 C-3 -1 -3 -1 0 0 Z " transform="translate(12,59)" style="fill: #F3E9FA;"/><path d="M0 0 C2.475 0.99 2.475 0.99 5 2 C5 2.99 5 3.98 5 5 C4.01 5.33 3.02 5.66 2 6 C2 5.34 2 4.68 2 4 C-0.31 4 -2.62 4 -5 4 C-5 3.34 -5 2.68 -5 2 C-3.35 2 -1.7 2 0 2 C0 1.34 0 0.68 0 0 Z " transform="translate(69,81)" style="fill: #694B8D;"/><path d="M0 0 C2.64 0 5.28 0 8 0 C7.67 1.32 7.34 2.64 7 4 C4.69 4 2.38 4 0 4 C0 2.68 0 1.36 0 0 Z " transform="translate(46,75)" style="fill: #E5D2F4;"/><path d="M0 0 C0.66 0.33 1.32 0.66 2 1 C2 4.3 2 7.6 2 11 C0.68 11.33 -0.64 11.66 -2 12 C-1.85831863 10.56208484 -1.71148957 9.1246763 -1.5625 7.6875 C-1.48128906 6.88699219 -1.40007812 6.08648437 -1.31640625 5.26171875 C-1 3 -1 3 0 0 Z " transform="translate(67,29)" style="fill: #785D9D;"/><path d="M0 0 C0.33 1.32 0.66 2.64 1 4 C-0.258125 4.04125 -1.51625 4.0825 -2.8125 4.125 C-3.52019531 4.14820312 -4.22789063 4.17140625 -4.95703125 4.1953125 C-7 4 -7 4 -10 2 C-6.38026598 0.68373308 -3.90432869 0 0 0 Z " transform="translate(40,65)" style="fill: #644687;"/><path d="M0 0 C0.99 0.66 1.98 1.32 3 2 C2.125 7.75 2.125 7.75 1 10 C0.01 10 -0.98 10 -2 10 C-1.46274105 6.62294375 -0.88935377 3.303314 0 0 Z " transform="translate(29,38)" style="fill: #61477F;"/><path d="M0 0 C1.98 0 3.96 0 6 0 C6.33 0.66 6.66 1.32 7 2 C8.32 2 9.64 2 11 2 C11 2.66 11 3.32 11 4 C9.741875 4.04125 8.48375 4.0825 7.1875 4.125 C6.47980469 4.14820312 5.77210937 4.17140625 5.04296875 4.1953125 C3 4 3 4 0 2 C0 1.34 0 0.68 0 0 Z " transform="translate(102,84)" style="fill: #624E83;"/><path d="M0 0 C0.99 0.33 1.98 0.66 3 1 C2.855625 1.515625 2.71125 2.03125 2.5625 2.5625 C1.84190099 5.68509571 1.42733561 8.82550692 1 12 C0.34 12 -0.32 12 -1 12 C-1.02698189 10.37509046 -1.04638757 8.75005367 -1.0625 7.125 C-1.07410156 6.22007813 -1.08570312 5.31515625 -1.09765625 4.3828125 C-1 2 -1 2 0 0 Z " transform="translate(82,74)" style="fill: #694496;"/><path d="M0 0 C4.875 0.875 4.875 0.875 6 2 C6.04063832 3.66617115 6.042721 5.33388095 6 7 C5.01 7 4.02 7 3 7 C2 5 2 5 3 2 C2.01 2 1.02 2 0 2 C0 1.34 0 0.68 0 0 Z " transform="translate(88,76)" style="fill: #F6EBFB;"/><path d="M0 0 C0 0.66 0 1.32 0 2 C0.99 1.67 1.98 1.34 3 1 C2.67 1.99 2.34 2.98 2 4 C1.34 4 0.68 4 0 4 C-0.33 4.66 -0.66 5.32 -1 6 C-1 5.34 -1 4.68 -1 4 C-2.32 4 -3.64 4 -5 4 C-5 3.01 -5 2.02 -5 1 C-3 0 -3 0 0 0 Z " transform="translate(69,74)" style="fill: #6D4C9A;"/><path d="M0 0 C0.66 0 1.32 0 2 0 C2 0.99 2 1.98 2 3 C2.99 2.67 3.98 2.34 5 2 C5.66 2.66 6.32 3.32 7 4 C5.68 4 4.36 4 3 4 C3.309375 4.928125 3.309375 4.928125 3.625 5.875 C3.74875 6.57625 3.8725 7.2775 4 8 C3.34 8.66 2.68 9.32 2 10 C1.67 7.69 1.34 5.38 1 3 C0.34 3 -0.32 3 -1 3 C-0.67 2.01 -0.34 1.02 0 0 Z " transform="translate(63,42)" style="fill: #754CA6;"/><path d="M0 0 C-2.14590229 2.36049251 -4.14600782 3.61903604 -7 5 C-7.66 5.66 -8.32 6.32 -9 7 C-8.625 4.0625 -8.625 4.0625 -8 1 C-5.29120665 -0.35439668 -2.99066732 -0.06501451 0 0 Z " transform="translate(78,43)" style="fill: #67517D;"/><path d="M0 0 C0.33 0 0.66 0 1 0 C1 3.3 1 6.6 1 10 C0.01 10.33 -0.98 10.66 -2 11 C-2 10.01 -2 9.02 -2 8 C-2.99 8.33 -3.98 8.66 -5 9 C-4.67 8.01 -4.34 7.02 -4 6 C-3.01 6 -2.02 6 -1 6 C-0.67 4.02 -0.34 2.04 0 0 Z " transform="translate(67,34)" style="fill: #63448B;"/><path d="M0 0 C0.66 0.33 1.32 0.66 2 1 C1.71831703 2.95979427 1.42433283 4.91782378 1.125 6.875 C0.96257813 7.96554688 0.80015625 9.05609375 0.6328125 10.1796875 C0 13 0 13 -2 15 C-1.67 11.04 -1.34 7.08 -1 3 C-1.66 2.67 -2.32 2.34 -3 2 C-2.01 1.34 -1.02 0.68 0 0 Z " transform="translate(59,52)" style="fill: #8267A1;"/><path d="M0 0 C0.33 0.99 0.66 1.98 1 3 C1.66 3 2.32 3 3 3 C3 5.31 3 7.62 3 10 C0.20127563 7.47211993 -1.45773019 5.79588866 -2 2 C-1.34 2 -0.68 2 0 2 C0 1.34 0 0.68 0 0 Z " transform="translate(38,37)" style="fill: #644390;"/><path d="M0 0 C1.32 0 2.64 0 4 0 C4 0.66 4 1.32 4 2 C4.99 2 5.98 2 7 2 C7.33 2.99 7.66 3.98 8 5 C5.36 4.34 2.72 3.68 0 3 C0 2.01 0 1.02 0 0 Z " transform="translate(108,75)" style="fill: #EAD9F0;"/><path d="M0 0 C0.33 0 0.66 0 1 0 C1.36337162 3.27034459 1.28544288 4.60883753 -0.6875 7.3125 C-3.39116247 9.28544288 -4.72965541 9.36337162 -8 9 C-6.35491434 7.19040578 -5.13345311 6.05887637 -2.875 5.0625 C-0.79278299 4.15354435 -0.79278299 4.15354435 -0.25 1.875 C-0.1675 1.25625 -0.085 0.6375 0 0 Z " transform="translate(51,59)" style="fill: #604982;"/><path d="M0 0 C2.31 0.33 4.62 0.66 7 1 C7.33 2.32 7.66 3.64 8 5 C7.01 5 6.02 5 5 5 C5 4.01 5 3.02 5 2 C3.02 2 1.04 2 -1 2 C-0.67 1.34 -0.34 0.68 0 0 Z " transform="translate(126,59)" style="fill: #614D7B;"/><path d="M0 0 C-1.98 0.99 -1.98 0.99 -4 2 C-2.35 2.33 -0.7 2.66 1 3 C0.67 3.66 0.34 4.32 0 5 C-3.79303725 3.99806563 -6.71536341 3.18975773 -10 1 C-6.61981469 -0.04005702 -3.5219721 -0.08004482 0 0 Z " transform="translate(130,58)" style="fill: #8470A4;"/><path d="M0 0 C0.6875 1.8125 0.6875 1.8125 1 4 C-0.25 5.75 -0.25 5.75 -2 7 C-2.99 7 -3.98 7 -5 7 C-3.70700306 4.11562221 -2.34058637 2.12780579 0 0 Z " transform="translate(119,49)" style="fill: #F2EEF1;"/><path d="M0 0 C0.33 0 0.66 0 1 0 C1 4.95 1 9.9 1 15 C-0.32 15 -1.64 15 -3 15 C-2.67 14.34 -2.34 13.68 -2 13 C-1.34 13 -0.68 13 0 13 C0 8.71 0 4.42 0 0 Z " transform="translate(59,37)" style="fill: #735D92;"/><path d="M0 0 C1.134375 0.020625 2.26875 0.04125 3.4375 0.0625 C3.4375 0.3925 3.4375 0.7225 3.4375 1.0625 C1.7875 1.0625 0.1375 1.0625 -1.5625 1.0625 C-1.5625 4.0325 -1.5625 7.0025 -1.5625 10.0625 C-1.8925 10.0625 -2.2225 10.0625 -2.5625 10.0625 C-2.92366046 8.5850254 -3.27625048 7.10545325 -3.625 5.625 C-3.82222656 4.80128906 -4.01945312 3.97757812 -4.22265625 3.12890625 C-4.39087891 2.10603516 -4.39087891 2.10603516 -4.5625 1.0625 C-3.5625 0.0625 -3.5625 0.0625 0 0 Z " transform="translate(87.5625,74.9375)" style="fill: #856DA5;"/><path d="M0 0 C0.99 0.33 1.98 0.66 3 1 C3.66666667 3 4.33333333 5 5 7 C5.99 7.33 6.98 7.66 8 8 C5.2980567 7.63487253 3.41609148 7.30130763 1.1875 5.6875 C0 4 0 4 0 0 Z " transform="translate(25,61)" style="fill: #82689C;"/><path d="M0 0 C0 0.66 0 1.32 0 2 C-0.66 2 -1.32 2 -2 2 C-2 2.99 -2 3.98 -2 5 C-3.65 5 -5.3 5 -7 5 C-6 2 -6 2 -4.0625 0.8125 C-2 0 -2 0 0 0 Z " transform="translate(111,59)" style="fill: #F1E1F8;"/><path d="M0 0 C2.64 0 5.28 0 8 0 C8 0.66 8 1.32 8 2 C5.69 2.33 3.38 2.66 1 3 C0.67 2.01 0.34 1.02 0 0 Z " transform="translate(33,57)" style="fill: #5F4D76;"/><path d="M0 0 C0 0.99 0 1.98 0 3 C-0.61875 3.28875 -1.2375 3.5775 -1.875 3.875 C-4.13325765 4.93720042 -4.13325765 4.93720042 -6 7 C-6.33 6.01 -6.66 5.02 -7 4 C-3.375 0 -3.375 0 0 0 Z " transform="translate(23,48)" style="fill: #FDFDEC;"/><path d="M0 0 C1.5 1.25 1.5 1.25 3 3 C3 4.32 3 5.64 3 7 C2.01 7 1.02 7 0 7 C-1.125 2.25 -1.125 2.25 0 0 Z " transform="translate(55,21)" style="fill: #F9FCF0;"/><path d="M0 0 C2.31 0 4.62 0 7 0 C6.01 1.485 6.01 1.485 5 3 C2.375 3.1875 2.375 3.1875 0 3 C0 2.01 0 1.02 0 0 Z " transform="translate(46,82)" style="fill: #F8E8FD;"/><path d="M0 0 C1.32 0.33 2.64 0.66 4 1 C3.67 2.32 3.34 3.64 3 5 C2.01 4.67 1.02 4.34 0 4 C0 4.99 0 5.98 0 7 C-0.66 6.67 -1.32 6.34 -2 6 C-1.34 4.02 -0.68 2.04 0 0 Z " transform="translate(45,56)" style="fill: #7750A9;"/><path d="M0 0 C-0.33 1.65 -0.66 3.3 -1 5 C-3.64 5.33 -6.28 5.66 -9 6 C-7 4 -7 4 -4.375 3.875 C-3.59125 3.91625 -2.8075 3.9575 -2 4 C-2 3.34 -2 2.68 -2 2 C-2.66 1.67 -3.32 1.34 -4 1 C-2 0 -2 0 0 0 Z " transform="translate(115,81)" style="fill: #7E5EA4;"/><path d="M0 0 C0.99 0 1.98 0 3 0 C2.34 1.65 1.68 3.3 1 5 C0.34 5 -0.32 5 -1 5 C-1 4.34 -1 3.68 -1 3 C-1.99 2.67 -2.98 2.34 -4 2 C-3.34 1.67 -2.68 1.34 -2 1 C-1.34 1.33 -0.68 1.66 0 2 C0 1.34 0 0.68 0 0 Z " transform="translate(100,73)" style="fill: #ECE3F4;"/><path d="M0 0 C1.0625 1.875 1.0625 1.875 2 4 C1.67 4.66 1.34 5.32 1 6 C-1.64 5.67 -4.28 5.34 -7 5 C-7 4.67 -7 4.34 -7 4 C-5.02 3.67 -3.04 3.34 -1 3 C-0.67 2.01 -0.34 1.02 0 0 Z " transform="translate(66,64)" style="fill: #D4C4DC;"/><path d="M0 0 C0 1.65 0 3.3 0 5 C0.66 5.33 1.32 5.66 2 6 C0.35 5.67 -1.3 5.34 -3 5 C-3 3.68 -3 2.36 -3 1 C-1 0 -1 0 0 0 Z " transform="translate(43,63)" style="fill: #795B9C;"/><path d="M0 0 C2.125 0.9375 2.125 0.9375 4 2 C3.34 2 2.68 2 2 2 C2 2.66 2 3.32 2 4 C0.35 4 -1.3 4 -3 4 C-2 1 -2 1 0 0 Z " transform="translate(15,58)" style="fill: #63487F;"/><path d="M0 0 C1.76462683 3.08809695 2 4.23312136 2 8 C1.01 7.67 0.02 7.34 -1 7 C-0.67 4.69 -0.34 2.38 0 0 Z " transform="translate(97,50)" style="fill: #604984;"/></svg>